<?xml version="1.0" encoding="UTF-8"?>
<!DOCTYPE svg PUBLIC "-//W3C//DTD SVG Tiny 1.2//EN"
  "http://www.w3.org/Graphics/SVG/1.2/DTD/svg12-tiny.dtd">
<svg xmlns="http://www.w3.org/2000/svg"
     xmlns:xlink="http://www.w3.org/1999/xlink"
     version="1.2"
     baseProfile="tiny"
     id="svg"
     width="400"
     height="400"
     viewBox="0 0 400 400">

 <g id="svgg" transform="translate(12.841 7.635)" fill-rule="evenodd">
  <path d="m176.77 98.885c-41.948 5.375-69.055 37.067-69.111 80.803-0.048 36.818 19.525 66.804 51.327 78.635 19.382 7.211 44.924 6.409 63.404-1.989l3.052-1.387 6.661 6.915c7.687 7.98 7.806 8.06 11.938 8.06 5.723 0 10.539-1.892 14.457-5.681 3.506-3.389 3.123-4.665-3.215-10.725-1.011-0.967-3.797-3.955-6.192-6.641-2.394-2.686-4.521-5.002-4.725-5.147-0.205-0.146 0.776-1.481 2.179-2.969 26.919-28.535 29.704-77.812 6.177-109.27-16.706-22.336-46.569-34.37-75.952-30.605m20.455 27.084c24.012 4.225 39.78 22.948 41.891 49.74 1.223 15.514-3.727 32.485-12.427 42.606l-1.137 1.323-6.697-8.376c-10.877-13.605-9.403-12.819-24.047-12.822l-10.467-2e-3 -0.958 0.958c-2.314 2.314-1.441 3.863 8.812 15.643 5.445 6.255 12.27 14.18 14.348 16.659 1.242 1.482-8.768 3.835-17.478 4.108-31.968 1.003-53.333-22.405-52.229-57.222 1.114-35.131 27.771-58.356 60.389-52.615" fill="#0b0d0c"/>
  <path d="m0 200v200h400v-400h-400v200m199.41-100.93c32.916 4.078 58.597 26.497 66.613 58.153 7.386 29.17 0.18 59.63-19.307 81.604l-2.304 2.598 0.758 0.867c3.989 4.57 8.396 9.383 11.738 12.821 5.149 5.297 5.257 6.637 0.817 10.147-4.325 3.418-7.954 4.644-13.784 4.657l-3.906 9e-3 -7.331-7.401-7.331-7.4-2.899 1.321c-18.016 8.21-43.13 9.199-62.308 2.452-31.417-11.052-51.499-40.091-52.631-76.107-1.691-53.791 38.422-90.344 91.875-83.721m-18.555 26.693c-30.907 3.964-49.693 34.457-42.725 69.35 6.114 30.617 35.394 47.731 65.43 38.243 1.692-0.535 3.077-1.073 3.077-1.196 0-0.234-14.03-16.585-18.507-21.569-5.588-6.22-6.883-9.36-4.704-11.406l1.009-0.947 10.989 0.134c14.643 0.177 12.493-1.031 24.099 13.538 3.08 3.867 5.661 7.105 5.734 7.196 0.556 0.687 5.28-5.946 7.735-10.86 8.035-16.086 8.082-39.392 0.109-55.32-9.76-19.5-29.99-30.018-52.246-27.163m91.876 146.16c12.775 2.725 17.762 17.601 9.031 26.937-6.359 6.799-16.991 6.964-23.589 0.367-11.095-11.095-0.715-30.562 14.558-27.304" fill="#fafafa"/>
  <path d="m267.19 271.88c-19.626 3.383-17.172 32.026 2.744 32.026 18.577 0 22.137-26.2 4.287-31.553-2.041-0.612-5.051-0.815-7.031-0.473" fill="#e82421"/>
  <path d="m185.45 98.329c0.698 0.087 1.841 0.087 2.539 0 0.699-0.086 0.127-0.157-1.269-0.157-1.397 0-1.968 0.071-1.27 0.157m1.57 100c0.702 0.087 1.756 0.085 2.343-4e-3s0.013-0.16-1.276-0.158-1.769 0.075-1.067 0.162m58.074 42.002-1.148 1.27 1.27-1.148c0.698-0.631 1.269-1.202 1.269-1.269 0-0.302-0.322-0.036-1.391 1.147m40.943 47.754c4e-3 0.859 0.084 1.165 0.178 0.679 0.093-0.486 0.09-1.189-8e-3 -1.563-0.098-0.373-0.174 0.025-0.17 0.884m-16.598 16.097c0.486 0.093 1.189 0.089 1.563-8e-3 0.373-0.098-0.024-0.175-0.884-0.17-0.859 4e-3 -1.165 0.084-0.679 0.178" fill="#98989a"/>
  <path d="m239.2 180.86c0 1.827 0.067 2.574 0.15 1.661 0.082-0.914 0.082-2.408 0-3.321-0.083-0.913-0.15-0.166-0.15 1.66" fill="#747475"/>
 </g>
</svg>
